 <svg width="272" height="47" viewBox="0 0 272 47" fill="none" xmlns="http://www.w3.org/2000/svg">
                    <path d="M0.170455 47V0.454544H18.8068C22.2311 0.454544 25.0871 0.96212 27.375 1.97727C29.6629 2.99242 31.3826 4.40151 32.5341 6.20454C33.6856 7.99242 34.2614 10.053 34.2614 12.3864C34.2614 14.2045 33.8977 15.803 33.1705 17.1818C32.4432 18.5455 31.4432 19.6667 30.1705 20.5455C28.9129 21.4091 27.4735 22.0227 25.8523 22.3864V22.8409C27.625 22.9167 29.2841 23.4167 30.8295 24.3409C32.3902 25.2652 33.6553 26.5606 34.625 28.2273C35.5947 29.8788 36.0795 31.8485 36.0795 34.1364C36.0795 36.6061 35.4659 38.8106 34.2386 40.75C33.0265 42.6742 31.2311 44.197 28.8523 45.3182C26.4735 46.4394 23.5417 47 20.0568 47H0.170455ZM10.0114 38.9545H18.0341C20.7765 38.9545 22.7765 38.4318 24.0341 37.3864C25.2917 36.3258 25.9205 34.9167 25.9205 33.1591C25.9205 31.8712 25.6098 30.7348 24.9886 29.75C24.3674 28.7652 23.4811 27.9924 22.3295 27.4318C21.1932 26.8712 19.8371 26.5909 18.2614 26.5909H10.0114V38.9545ZM10.0114 19.9318H17.3068C18.6553 19.9318 19.8523 19.697 20.8977 19.2273C21.9583 18.7424 22.7917 18.0606 23.3977 17.1818C24.0189 16.303 24.3295 15.25 24.3295 14.0227C24.3295 12.3409 23.7311 10.9848 22.5341 9.95454C21.3523 8.92424 19.6705 8.40909 17.4886 8.40909H10.0114V19.9318ZM42.483 47V0.454544H52.3239V38.8864H72.2784V47H42.483ZM78.7955 47V0.454544H110.159V8.56818H88.6364V19.6591H108.545V27.7727H88.6364V38.8864H110.25V47H78.7955ZM156.915 0.454544V47H148.415L128.165 17.7045H127.824V47H117.983V0.454544H126.619L146.71 29.7273H147.119V0.454544H156.915ZM181.545 47H165.045V0.454544H181.682C186.364 0.454544 190.394 1.38636 193.773 3.25C197.152 5.09848 199.75 7.75757 201.568 11.2273C203.402 14.697 204.318 18.8485 204.318 23.6818C204.318 28.5303 203.402 32.697 201.568 36.1818C199.75 39.6667 197.136 42.3409 193.727 44.2045C190.333 46.0682 186.273 47 181.545 47ZM174.886 38.5682H181.136C184.045 38.5682 186.492 38.053 188.477 37.0227C190.477 35.9773 191.977 34.3636 192.977 32.1818C193.992 29.9848 194.5 27.1515 194.5 23.6818C194.5 20.2424 193.992 17.4318 192.977 15.25C191.977 13.0682 190.485 11.4621 188.5 10.4318C186.515 9.40151 184.068 8.88636 181.159 8.88636H174.886V38.5682ZM233.176 19.8864V27.5682H211.949V19.8864H233.176ZM241.608 47V0.454544H251.449V38.8864H271.403V47H241.608Z" fill="white"/>
                </svg>  